# File created by Blade
# Date/Time:  Wed Jan 21 18:40:15 2015
#---------------------------------------------------------
:version 1.10
:name HOM
:units
  mass 1.0
  length 1.000000
  angle deg
:documentation
     Acclaim Skeleton File
:root
   axis xyz
   order TX TY TZ RX RY RZ
   position 0.000000 0.000000 0.000000
   orientation 0 0 0
:bonedata
   begin
      id 1
      name RightUpLeg_dum
      direction -1.000000 0.000000 0.000000
      length 3.693983
      axis 0.0 0.0 0.0 xyz
   end
   begin
      id 2
      name LeftUpLeg_dum
      direction 1.000000 0.000000 0.000000
      length 3.693983
      axis 0.0 0.0 0.0 xyz
   end
   begin
      id 3
      name Spine_dum
      direction 0.000000 1.000000 0.000000
      length 2.392956
      axis 0.0 0.0 0.0 xyz
   end
   begin
      id 4
      name RightUpLeg
      direction 0.000000 -1.000000 0.000000
      length 15.795667
      axis 0.0 0.0 0.0 xyz
      dof rx ry rz
   end
   begin
      id 5
      name RightLeg
      direction 0.000000 -1.000000 0.000000
      length 14.766989
      axis 0.0 0.0 0.0 xyz
      dof rx ry rz
   end
   begin
      id 6
      name RightFoot
      direction 0.000000 -0.258819 0.965926
      length 4.962790
      axis 15.0 0.0 0.0 xyz
      dof rx ry rz
   end
   begin
      id 7
      name RightToeBase
      direction 0.000000 0.000000 1.000000
      length 2.952750
      axis 0.0 0.0 0.0 xyz
      dof rx ry rz
   end
   begin
      id 8
      name LeftUpLeg
      direction 0.000000 -1.000000 0.000000
      length 15.795667
      axis 0.0 0.0 0.0 xyz
      dof rx ry rz
   end
   begin
      id 9
      name LeftLeg
      direction 0.000000 -1.000000 0.000000
      length 14.766989
      axis 0.0 0.0 0.0 xyz
      dof rx ry rz
   end
   begin
      id 10
      name LeftFoot
      direction 0.000000 -0.258819 0.965926
      length 4.962790
      axis 15.0 0.0 0.0 xyz
      dof rx ry rz
   end
   begin
      id 11
      name LeftToeBase
      direction 0.000000 0.000000 1.000000
      length 2.952750
      axis 0.0 0.0 0.0 xyz
      dof rx ry rz
   end
   begin
      id 12
      name Spine
      direction 0.000000 1.000000 0.000000
      length 0.000000
      axis 0.0 0.0 0.0 xyz
      dof rx ry rz
   end
   begin
      id 13
      name Spine_dum1
      direction 0.000000 1.000000 0.000000
      length 13.207411
      axis 0.0 0.0 0.0 xyz
   end
   begin
      id 14
      name Spine_dum2
      direction 0.000000 1.000000 0.000000
      length 13.207411
      axis 0.0 0.0 0.0 xyz
   end
   begin
      id 15
      name Spine_dum3
      direction 0.000000 1.000000 0.000000
      length 19.250100
      axis 0.0 0.0 0.0 xyz
   end
   begin
      id 16
      name RightShoulder
      direction -1.000000 0.000000 0.000000
      length 8.140465
      axis 0.0 0.0 90.0 xyz
      dof rx ry rz
   end
   begin
      id 17
      name RightArm
      direction -1.000000 0.000000 0.000000
      length 10.649840
      axis 0.0 0.0 90.0 xyz
      dof rx ry rz
   end
   begin
      id 18
      name RightForeArm
      direction -1.000000 0.000000 0.000000
      length 8.304624
      axis 0.0 0.0 90.0 xyz
      dof ry rz rx
   end
   begin
      id 19
      name RightHand
      direction -1.000000 0.000000 0.000000
      length 0.000000
      axis 0.0 0.0 90.0 xyz
      dof rx ry rz
   end
   begin
      id 20
      name RightHand_dum1
      direction -1.000000 0.000000 0.000000
      length 3.937000
      axis 0.0 0.0 90.0 xyz
   end
   begin
      id 21
      name RightHand_dum2
      direction 0.000000 0.000000 0.000000
      length 0.000000
      axis 0.0 0.0 90.0 xyz
   end
   begin
      id 22
      name RightHandThumb1
      direction 0.000000 0.000000 1.000000
      length 3.937000
      axis 0.0 0.0 90.0 xyz
      dof rx rz ry
   end
   begin
      id 23
      name LeftShoulder
      direction 1.000000 0.000000 0.000000
      length 8.140465
      axis 0.0 0.0 -90.0 xyz
      dof rx ry rz
   end
   begin
      id 24
      name LeftArm
      direction 1.000000 0.000000 0.000000
      length 10.649840
      axis 0.0 0.0 -90.0 xyz
      dof rx ry rz
   end
   begin
      id 25
      name LeftForeArm
      direction 1.000000 0.000000 0.000000
      length 8.304624
      axis 0.0 0.0 -90.0 xyz
      dof ry rz rx
   end
   begin
      id 26
      name LeftHand
      direction 1.000000 0.000000 0.000000
      length 0.000000
      axis 0.0 0.0 -90.0 xyz
      dof rx ry rz
   end
   begin
      id 27
      name LeftHand_dum1
      direction 1.000000 0.000000 0.000000
      length 3.937000
      axis 0.0 0.0 -90.0 xyz
   end
   begin
      id 28
      name LeftHand_dum2
      direction 0.000000 0.000000 0.000000
      length 0.000000
      axis 0.0 0.0 -90.0 xyz
   end
   begin
      id 29
      name LeftHandThumb1
      direction 0.000000 0.000000 1.000000
      length 3.937000
      axis 0.0 0.0 -90.0 xyz
      dof rx rz ry
   end
   begin
      id 30
      name Head
      direction 0.000000 1.000000 0.000000
      length 4.527550
      axis 0.0 0.0 0.0 xyz
      dof rx ry rz
   end
:hierarchy
   begin
      root RightUpLeg_dum LeftUpLeg_dum Spine_dum
      RightUpLeg_dum RightUpLeg
      LeftUpLeg_dum LeftUpLeg
      Spine_dum Spine
      RightUpLeg RightLeg
      RightLeg RightFoot
      RightFoot RightToeBase
      LeftUpLeg LeftLeg
      LeftLeg LeftFoot
      LeftFoot LeftToeBase
      Spine Spine_dum1 Spine_dum2 Spine_dum3
      Spine_dum1 RightShoulder
      Spine_dum2 LeftShoulder
      Spine_dum3 Head
      RightShoulder RightArm
      RightArm RightForeArm
      RightForeArm RightHand
      RightHand RightHand_dum1 RightHand_dum2
      RightHand_dum2 RightHandThumb1
      LeftShoulder LeftArm
      LeftArm LeftForeArm
      LeftForeArm LeftHand
      LeftHand LeftHand_dum1 LeftHand_dum2
      LeftHand_dum2 LeftHandThumb1
   end

# File created by Blade
# Date/Time:  Wed Jan 21 18:40:08 2015
# Frame Rate: 120.000 fps
#------------------------------------------------------
:FULLY-SPECIFIED
:DEGREES
2212
root -4.163216 17.973213 -12.515344 77.186614 -7.691657 18.613651
RightUpLeg -180.712276 -31.853720 41.755122
RightLeg 106.818795 -0.000000 -0.000000
RightFoot -15.380582 37.595901 20.390145
RightToeBase 17.793058 -0.000000 -0.000000
LeftUpLeg -95.797814 35.829021 -27.341831
LeftLeg -6.647724 -0.000000 0.000000
LeftFoot 16.100151 -11.601611 -50.011074
LeftToeBase 9.683112 -0.000000 -0.000000
Spine -28.178323 16.535496 6.640767
RightShoulder 1.473933 30.773809 -24.177820
RightArm 9.553543 -12.732032 72.919700
RightForeArm 18.830093 0.000000 -0.362348
RightHand 39.359314 -0.000000 -37.542244
RightHandThumb1 -24.326973 -0.000000 -32.862282
LeftShoulder -11.321135 0.469624 44.223862
LeftArm 26.626638 -8.114535 -39.661486
LeftForeArm 12.039893 -0.000000 9.835812
LeftHand -18.156039 -0.000000 16.346315
LeftHandThumb1 -26.253704 0.000000 33.147579
Head -26.056890 -35.833040 34.101287
2213
root -4.179524 17.855534 -12.501091 76.806918 -7.380302 18.752944
RightUpLeg -181.031272 -32.296995 42.115419
RightLeg 107.365233 -0.000000 -0.000000
RightFoot -15.442074 37.826692 20.371720
RightToeBase 17.760547 -0.000000 -0.000000
LeftUpLeg -95.828637 35.875348 -27.772915
LeftLeg -6.934491 -0.000000 0.000000
LeftFoot 16.780732 -11.980245 -50.453389
LeftToeBase 9.647360 -0.000000 -0.000000
Spine -27.915919 16.138420 6.808026
RightShoulder 1.535519 30.732971 -24.322804
RightArm 9.325607 -11.933124 73.428119
RightForeArm 18.358258 -0.000000 -0.426043
RightHand 39.567560 -0.000000 -37.875297
RightHandThumb1 -24.326973 -0.000000 -32.862282
LeftShoulder -11.301975 0.330571 44.226997
LeftArm 27.054609 -9.025554 -39.393270
LeftForeArm 12.146454 -0.000000 10.150798
LeftHand -18.406546 -0.000000 16.686073
LeftHandThumb1 -26.253704 0.000000 33.147579
Head -26.249030 -35.995078 34.483231
2214
root -4.209114 17.740608 -12.499041 76.505659 -7.085506 18.756235
RightUpLeg -181.227899 -32.574399 42.370172
RightLeg 107.896160 -0.000000 -0.000000
RightFoot -15.617271 37.938374 20.216861
RightToeBase 17.822506 -0.000000 -0.000000
LeftUpLeg -95.952477 36.062183 -28.006704
LeftLeg -7.078757 -0.000000 0.000000
LeftFoot 17.291003 -12.137048 -50.850710
LeftToeBase 9.694420 -0.000000 -0.000000
Spine -27.677596 15.880829 6.927786
RightShoulder 1.651016 30.815151 -24.336736
RightArm 8.936313 -11.928520 73.725256
RightForeArm 18.599888 -0.000000 -0.280232
RightHand 39.776375 -0.000000 -38.937624
RightHandThumb1 -24.326973 -0.000000 -32.862282
LeftShoulder -11.242412 0.147753 44.314049
LeftArm 27.410362 -9.969833 -39.179600
LeftForeArm 12.269860 -0.000000 10.493243
LeftHand -18.470887 -0.000000 16.477920
LeftHandThumb1 -26.253704 0.000000 33.147579
Head -26.452650 -36.154642 34.907287
2215
root -4.245231 17.626481 -12.499959 76.243365 -6.815856 18.681733
RightUpLeg -181.332918 -32.782283 42.526130
RightLeg 108.424874 -0.000000 -0.000000
RightFoot -15.768611 38.038610 20.141307
RightToeBase 17.840525 -0.000000 -0.000000
LeftUpLeg -96.095133 36.330890 -28.149578
LeftLeg -7.200522 -0.000000 0.000000
LeftFoot 17.716585 -12.204790 -51.139267
LeftToeBase 9.763588 -0.000000 -0.000000
Spine -27.460094 15.714228 6.987504
RightShoulder 1.721265 30.781341 -24.305457
RightArm 8.651184 -11.618883 74.003090
RightForeArm 18.635525 0.000000 -0.130989
RightHand 40.187678 -0.000000 -39.768024
RightHandThumb1 -24.326973 -0.000000 -32.862282
LeftShoulder -11.201992 -0.136584 44.459355
LeftArm 27.804398 -10.830215 -39.003582
LeftForeArm 12.259048 0.000000 10.723904
LeftHand -18.628101 -0.000000 16.594152
LeftHandThumb1 -26.253704 0.000000 33.147579
Head -26.644732 -36.301330 35.362660
2216
root -4.302164 17.506134 -12.499264 75.999154 -6.068186 18.331560
RightUpLeg -181.200874 -32.928000 43.122255
RightLeg 109.039580 -0.000000 -0.000000
RightFoot -16.142563 38.202140 19.955804
RightToeBase 17.898746 -0.000000 -0.000000
LeftUpLeg -96.172334 36.837846 -27.227158
LeftLeg -7.021723 -0.000000 0.000000
LeftFoot 17.733436 -12.188455 -51.187922
LeftToeBase 9.502663 -0.000000 -0.000000
Spine -27.221557 15.721407 7.567236
RightShoulder 1.751822 30.721912 -24.274496
RightArm 8.365376 -11.261944 74.288593
RightForeArm 18.720939 -0.000000 0.041049
RightHand 40.603751 0.000000 -39.858392
RightHandThumb1 -24.326973 -0.000000 -32.862282
LeftShoulder -11.149953 -0.372964 44.572565
LeftArm 28.252766 -11.565476 -38.754285
LeftForeArm 12.111710 -0.000000 10.919781
LeftHand -18.621453 0.000000 17.097038
LeftHandThumb1 -26.253704 0.000000 33.147579
Head -26.854818 -36.455101 35.882782
2217
root -4.342554 17.399139 -12.501750 75.784808 -5.685505 18.183954
RightUpLeg -181.247257 -33.110612 43.359120
RightLeg 109.549952 -0.000000 -0.000000
RightFoot -16.276840 38.282100 19.938428
RightToeBase 17.895421 -0.000000 -0.000000
LeftUpLeg -96.235845 37.170167 -26.815701
LeftLeg -6.900507 -0.000000 0.000000
LeftFoot 17.789093 -12.129240 -51.378139
LeftToeBase 9.488819 -0.000000 -0.000000
Spine -27.045262 15.626603 7.747064
RightShoulder 1.813531 30.687393 -24.242946
RightArm 8.076357 -10.228297 74.686398
RightForeArm 18.114116 -0.000000 0.158321
RightHand 40.905488 -0.000000 -40.696150
RightHandThumb1 -24.326973 -0.000000 -32.862282
LeftShoulder -11.035916 -0.645045 44.753327
LeftArm 28.605800 -12.373035 -38.660437
LeftForeArm 12.199966 -0.000000 11.134690
LeftHand -18.625773 -0.000000 17.557124
LeftHandThumb1 -26.253704 0.000000 33.147579
Head -26.978786 -36.676795 36.286640
2218
root -4.383049 17.296716 -12.506728 75.672361 -5.303777 17.994669
RightUpLeg -181.329974 -33.187028 43.618878
RightLeg 110.039698 -0.000000 -0.000000
RightFoot -16.496785 38.261755 19.602689
RightToeBase 17.693577 -0.000000 -0.000000
LeftUpLeg -96.412004 37.507085 -26.367794
LeftLeg -6.697866 -0.000000 0.000000
LeftFoot 17.749232 -12.027502 -51.745026
LeftToeBase 9.850636 -0.000000 -0.000000
Spine -26.951207 15.572115 7.902855
RightShoulder 1.883401 30.715931 -24.191415
RightArm 7.692240 -9.526891 75.026788
RightForeArm 17.785090 -0.000000 0.412737
RightHand 41.074321 0.000000 -41.399735
RightHandThumb1 -24.326973 -0.000000 -32.862282
LeftShoulder -11.011563 -0.861941 44.960250
LeftArm 29.063731 -13.073569 -38.566509
LeftForeArm 12.193569 -0.000000 11.356234
LeftHand -18.749896 -0.000000 17.940968
LeftHandThumb1 -26.253704 0.000000 33.147579
Head -27.107295 -36.844613 36.740484
2219
root -4.423134 17.197997 -12.509735 75.617468 -4.944502 17.806033
RightUpLeg -181.435335 -33.249660 43.855289
RightLeg 110.513915 -0.000000 -0.000000
RightFoot -16.523687 38.350369 19.828326
RightToeBase 17.995072 -0.000000 -0.000000
LeftUpLeg -96.631356 37.821023 -25.946125
LeftLeg -6.480428 -0.000000 0.000000
LeftFoot 17.670769 -12.066609 -51.749440
LeftToeBase 9.887633 -0.000000 -0.000000
Spine -26.937619 15.573739 7.994710
RightShoulder 1.914935 30.630728 -24.130307
RightArm 7.363245 -8.894312 75.307175
RightForeArm 17.486031 -0.000000 0.751062
RightHand 41.179854 -0.000000 -42.847883
RightHandThumb1 -24.326973 -0.000000 -32.862282
LeftShoulder -10.913078 -1.127160 45.244732
LeftArm 29.437522 -13.795539 -38.598069
LeftForeArm 12.284468 -0.000000 11.604312
LeftHand -18.844271 -0.000000 18.227082
LeftHandThumb1 -26.253704 0.000000 33.147579
Head -27.230637 -37.029621 37.222323
2220
root -4.462497 17.103854 -12.514920 75.614304 -4.644448 17.635684
RightUpLeg -181.579122 -33.254391 44.046850
RightLeg 110.964034 -0.000000 -0.000000
RightFoot -16.560713 38.367452 19.847752
RightToeBase 18.009234 -0.000000 -0.000000
LeftUpLeg -96.931463 38.097539 -25.673081
LeftLeg -6.269561 -0.000000 0.000000
LeftFoot 17.659123 -12.147138 -51.690606
LeftToeBase 9.850111 -0.000000 -0.000000
Spine -26.955343 15.548387 8.027110
RightShoulder 1.924641 30.653711 -24.079865
RightArm 6.988199 -8.528662 75.587746
RightForeArm 17.400148 0.000000 1.095000
RightHand 41.267030 -0.000000 -43.933101
RightHandThumb1 -24.326973 -0.000000 -32.862282
LeftShoulder -10.882486 -1.450530 45.529293
LeftArm 29.784772 -14.284035 -38.530189
LeftForeArm 12.276243 -0.000000 11.778270
LeftHand -18.760410 -0.000000 18.596166
LeftHandThumb1 -26.253704 0.000000 33.147579
Head -27.360185 -37.206239 37.704383
2221
root -4.501307 17.011536 -12.518657 75.623875 -4.361896 17.436566
RightUpLeg -181.689603 -33.236548 44.214205
RightLeg 111.400573 -0.000000 -0.000000
RightFoot -16.625642 38.404946 19.941437
RightToeBase 18.401150 -0.000000 -0.000000
LeftUpLeg -97.254114 38.378879 -25.461117
LeftLeg -6.105060 -0.000000 0.000000
LeftFoot 17.646991 -12.248253 -51.362882
LeftToeBase 9.525875 -0.000000 -0.000000
Spine -26.981109 15.565359 8.033521
RightShoulder 1.896270 30.621732 -24.029622
RightArm 6.663200 -8.117632 75.851066
RightForeArm 17.204012 -0.000000 1.443094
RightHand 41.390646 0.000000 -44.478529
RightHandThumb1 -24.326973 -0.000000 -32.862282
LeftShoulder -10.846990 -1.735832 45.861445
LeftArm 30.106830 -14.723974 -38.492451
LeftForeArm 12.267835 -0.000000 11.991602
LeftHand -18.700653 -0.000000 18.840893
LeftHandThumb1 -26.253704 0.000000 33.147579
Head -27.529267 -37.380503 38.246215
2222
root -4.525997 16.925916 -12.515090 75.586048 -4.109270 17.398721
RightUpLeg -181.929134 -33.356016 44.438009
RightLeg 111.801790 -0.000000 -0.000000
RightFoot -16.722441 38.456309 19.930752
RightToeBase 18.640134 -0.000000 -0.000000
LeftUpLeg -97.473091 38.491718 -25.394140
LeftLeg -6.049539 -0.000000 0.000000
LeftFoot 17.758175 -12.237224 -51.631406
LeftToeBase 9.991803 -0.000000 -0.000000
Spine -26.982204 15.417786 8.058676
RightShoulder 1.907578 30.576699 -23.981632
RightArm 6.379056 -7.816777 76.082258
RightForeArm 17.219238 -0.000000 1.812360
RightHand 41.492340 -0.000000 -45.572047
RightHandThumb1 -24.326973 -0.000000 -32.862282
LeftShoulder -10.860889 -1.916208 46.089657
LeftArm 30.475519 -15.069153 -38.367000
LeftForeArm 12.300453 0.000000 12.170432
LeftHand -18.682332 0.000000 18.982450
LeftHandThumb1 -26.253704 0.000000 33.147579
Head -27.666842 -37.561743 38.658979
2223
root -4.555228 16.842499 -12.514370 75.551081 -3.872648 17.301789
RightUpLeg -182.084404 -33.399176 44.622736
RightLeg 112.186451 -0.000000 -0.000000
RightFoot -16.896140 38.471772 19.888185
RightToeBase 18.660570 -0.000000 -0.000000
LeftUpLeg -97.747133 38.647164 -25.407319
LeftLeg -6.036996 -0.000000 0.000000
LeftFoot 17.947330 -12.266164 -51.654917
LeftToeBase 10.000165 -0.000000 -0.000000
Spine -26.956941 15.323137 8.068839
RightShoulder 1.903249 30.570526 -23.891804
RightArm 6.113061 -7.597669 76.281447
RightForeArm 17.233254 0.000000 2.106120
RightHand 41.643224 0.000000 -46.926535
RightHandThumb1 -24.326973 -0.000000 -32.862282
LeftShoulder -10.872795 -2.168866 46.336826
LeftArm 30.741878 -15.166545 -38.073372
LeftForeArm 12.191406 -0.000000 12.312612
LeftHand -18.633438 -0.000000 19.166817
LeftHandThumb1 -26.253704 0.000000 33.147579
Head -27.818445 -37.704168 39.082390
